# Blender v2.82 (sub 7) OBJ File: ''
# www.blender.org
o Plane
v 0.800000 -0.600000 0.000000
v 0.800000 -0.800000 0.000000
v 0.600000 -0.800000 0.000000
v 0.600000 -0.600000 0.000000
v 0.000000 -0.600000 0.000000
v 0.000000 -0.800000 0.000000
v -0.200000 -0.800000 0.000000
v -0.200000 -0.600000 0.000000
v 0.000000 0.200000 0.000000
v 0.000000 0.000000 0.000000
v -0.200000 0.000000 0.000000
v -0.200000 0.200000 0.000000
v 0.800000 0.200000 0.000000
v 0.800000 0.000000 0.000000
v 0.600000 0.000000 0.000000
v 0.600000 0.200000 0.000000
v 0.400000 0.200000 0.000000
v 0.400000 0.000000 0.000000
v 0.200000 0.000000 0.000000
v 0.200000 0.200000 0.000000
v 0.400000 0.600000 0.000000
v 0.400000 0.400000 0.000000
v 0.200000 0.400000 0.000000
v 0.200000 0.600000 0.000000
v 0.800000 0.600000 0.000000
v 0.800000 0.400000 0.000000
v 0.600000 0.400000 0.000000
v 0.600000 0.600000 0.000000
v -0.400000 0.200000 0.000000
v -0.400000 0.000000 0.000000
v -0.600000 0.000000 0.000000
v -0.600000 0.200000 0.000000
v -0.400000 0.600000 0.000000
v -0.400000 0.400000 0.000000
v -0.600000 0.400000 0.000000
v -0.600000 0.600000 0.000000
v 0.000000 0.600000 0.000000
v 0.000000 0.400000 0.000000
v -0.200000 0.400000 0.000000
v -0.200000 0.600000 0.000000
v -0.400000 -0.600000 0.000000
v -0.400000 -0.800000 0.000000
v -0.600000 -0.800000 0.000000
v -0.600000 -0.600000 0.000000
v -0.400000 -0.200000 0.000000
v -0.400000 -0.400000 0.000000
v -0.600000 -0.400000 0.000000
v -0.600000 -0.200000 0.000000
v 0.000000 -0.200000 0.000000
v 0.000000 -0.400000 0.000000
v -0.200000 -0.400000 0.000000
v -0.200000 -0.200000 0.000000
v 0.400000 -0.600000 0.000000
v 0.400000 -0.800000 0.000000
v 0.200000 -0.800000 0.000000
v 0.200000 -0.600000 0.000000
v 0.400000 -0.200000 0.000000
v 0.400000 -0.400000 0.000000
v 0.200000 -0.400000 0.000000
v 0.200000 -0.200000 0.000000
v 0.800000 -0.200000 0.000000
v 0.800000 -0.400000 0.000000
v 0.600000 -0.400000 0.000000
v 0.600000 -0.200000 0.000000
v -0.800000 -0.400000 0.000000
v -0.800000 -0.200000 0.000000
v -0.800000 0.000000 0.000000
v -0.800000 -0.800000 0.000000
v -0.800000 -0.600000 0.000000
v -0.200000 0.800000 0.000000
v -0.400000 0.800000 0.000000
v 0.000000 0.800000 0.000000
v -0.800000 0.400000 0.000000
v -0.800000 0.600000 0.000000
v -0.600000 0.800000 0.000000
v -0.800000 0.800000 0.000000
v -0.800000 0.200000 0.000000
v 0.600000 0.800000 0.000000
v 0.400000 0.800000 0.000000
v 0.800000 0.800000 0.000000
v 0.200000 0.800000 0.000000
v 0.200000 1.000000 0.000000
v 0.000000 1.000000 0.000000
v -0.200000 1.000000 0.000000
v -0.400000 1.000000 0.000000
v 0.800000 1.000000 0.000000
v 0.600000 1.000000 0.000000
v 0.400000 1.000000 0.000000
v -0.600000 1.000000 0.000000
v -0.800000 1.000000 0.000000
v 1.000000 -0.200000 0.000000
v 1.000000 -0.400000 0.000000
v 1.000000 1.000000 0.000000
v 1.000000 0.800000 0.000000
v 0.800000 0.800000 0.000000
v 0.800000 1.000000 0.000000
v 1.000000 0.600000 0.000000
v 1.000000 0.400000 0.000000
v 1.000000 -0.600000 0.000000
v 1.000000 0.200000 0.000000
v 1.000000 -0.800000 0.000000
v 1.000000 0.000000 0.000000
v 1.000000 0.800000 0.000000
v -1.000000 -0.200000 0.000000
v -1.000000 0.000000 0.000000
v -1.000000 0.200000 0.000000
v -1.000000 -0.800000 0.000000
v -1.000000 -0.600000 0.000000
v -1.000000 0.400000 0.000000
v -1.000000 -0.400000 0.000000
v -1.000000 0.600000 0.000000
v -1.000000 0.800000 0.000000
v -0.800000 1.000000 0.000000
v -0.800000 0.800000 0.000000
v -1.000000 0.800000 0.000000
v -1.000000 1.000000 0.000000
v 0.000000 -1.000000 0.000000
v -0.200000 -1.000000 0.000000
v 1.000000 -0.800000 0.000000
v 1.000000 -1.000000 0.000000
v 0.800000 -1.000000 0.000000
v 0.800000 -0.800000 0.000000
v 0.800000 -1.000000 0.000000
v 0.600000 -1.000000 0.000000
v -0.400000 -1.000000 0.000000
v -0.800000 -0.800000 0.000000
v -0.800000 -1.000000 0.000000
v -1.000000 -1.000000 0.000000
v -1.000000 -0.800000 0.000000
v 0.400000 -1.000000 0.000000
v -0.600000 -1.000000 0.000000
v 0.200000 -1.000000 0.000000
v -0.800000 -1.000000 0.000000
vn 0.0000 0.0000 -1.0000
s off
f 1//1 2//1 3//1
f 1//1 3//1 4//1
f 5//1 6//1 7//1
f 5//1 7//1 8//1
f 9//1 10//1 11//1
f 9//1 11//1 12//1
f 13//1 14//1 15//1
f 13//1 15//1 16//1
f 17//1 18//1 19//1
f 17//1 19//1 20//1
f 21//1 22//1 23//1
f 21//1 23//1 24//1
f 25//1 26//1 27//1
f 25//1 27//1 28//1
f 29//1 30//1 31//1
f 29//1 31//1 32//1
f 33//1 34//1 35//1
f 33//1 35//1 36//1
f 37//1 38//1 39//1
f 37//1 39//1 40//1
f 41//1 42//1 43//1
f 41//1 43//1 44//1
f 45//1 46//1 47//1
f 45//1 47//1 48//1
f 49//1 50//1 51//1
f 49//1 51//1 52//1
f 53//1 54//1 55//1
f 53//1 55//1 56//1
f 57//1 58//1 59//1
f 57//1 59//1 60//1
f 61//1 62//1 63//1
f 61//1 63//1 64//1
f 64//1 63//1 58//1
f 64//1 58//1 57//1
f 15//1 64//1 57//1
f 15//1 57//1 18//1
f 14//1 61//1 64//1
f 14//1 64//1 15//1
f 60//1 59//1 50//1
f 60//1 50//1 49//1
f 19//1 60//1 49//1
f 19//1 49//1 10//1
f 18//1 57//1 60//1
f 18//1 60//1 19//1
f 56//1 55//1 6//1
f 56//1 6//1 5//1
f 59//1 56//1 5//1
f 59//1 5//1 50//1
f 58//1 53//1 56//1
f 58//1 56//1 59//1
f 52//1 51//1 46//1
f 52//1 46//1 45//1
f 11//1 52//1 45//1
f 11//1 45//1 30//1
f 10//1 49//1 52//1
f 10//1 52//1 11//1
f 48//1 47//1 65//1
f 48//1 65//1 66//1
f 31//1 48//1 66//1
f 31//1 66//1 67//1
f 30//1 45//1 48//1
f 30//1 48//1 31//1
f 44//1 43//1 68//1
f 44//1 68//1 69//1
f 47//1 44//1 69//1
f 47//1 69//1 65//1
f 46//1 41//1 44//1
f 46//1 44//1 47//1
f 40//1 39//1 34//1
f 40//1 34//1 33//1
f 70//1 40//1 33//1
f 70//1 33//1 71//1
f 72//1 37//1 40//1
f 72//1 40//1 70//1
f 36//1 35//1 73//1
f 36//1 73//1 74//1
f 75//1 36//1 74//1
f 75//1 74//1 76//1
f 71//1 33//1 36//1
f 71//1 36//1 75//1
f 32//1 31//1 67//1
f 32//1 67//1 77//1
f 35//1 32//1 77//1
f 35//1 77//1 73//1
f 34//1 29//1 32//1
f 34//1 32//1 35//1
f 28//1 27//1 22//1
f 28//1 22//1 21//1
f 78//1 28//1 21//1
f 78//1 21//1 79//1
f 80//1 25//1 28//1
f 80//1 28//1 78//1
f 24//1 23//1 38//1
f 24//1 38//1 37//1
f 81//1 24//1 37//1
f 81//1 37//1 72//1
f 79//1 21//1 24//1
f 79//1 24//1 81//1
f 20//1 19//1 10//1
f 20//1 10//1 9//1
f 23//1 20//1 9//1
f 23//1 9//1 38//1
f 22//1 17//1 20//1
f 22//1 20//1 23//1
f 16//1 15//1 18//1
f 16//1 18//1 17//1
f 27//1 16//1 17//1
f 27//1 17//1 22//1
f 26//1 13//1 16//1
f 26//1 16//1 27//1
f 12//1 11//1 30//1
f 12//1 30//1 29//1
f 39//1 12//1 29//1
f 39//1 29//1 34//1
f 38//1 9//1 12//1
f 38//1 12//1 39//1
f 8//1 7//1 42//1
f 8//1 42//1 41//1
f 51//1 8//1 41//1
f 51//1 41//1 46//1
f 50//1 5//1 8//1
f 50//1 8//1 51//1
f 4//1 3//1 54//1
f 4//1 54//1 53//1
f 63//1 4//1 53//1
f 63//1 53//1 58//1
f 62//1 1//1 4//1
f 62//1 4//1 63//1
f 82//1 81//1 72//1
f 82//1 72//1 83//1
f 83//1 72//1 70//1
f 83//1 70//1 84//1
f 84//1 70//1 71//1
f 84//1 71//1 85//1
f 86//1 80//1 78//1
f 86//1 78//1 87//1
f 87//1 78//1 79//1
f 87//1 79//1 88//1
f 85//1 71//1 75//1
f 85//1 75//1 89//1
f 89//1 75//1 76//1
f 89//1 76//1 90//1
f 88//1 79//1 81//1
f 88//1 81//1 82//1
f 91//1 92//1 62//1
f 91//1 62//1 61//1
f 93//1 94//1 95//1
f 93//1 95//1 96//1
f 97//1 98//1 26//1
f 97//1 26//1 25//1
f 92//1 99//1 1//1
f 92//1 1//1 62//1
f 98//1 100//1 13//1
f 98//1 13//1 26//1
f 99//1 101//1 2//1
f 99//1 2//1 1//1
f 100//1 102//1 14//1
f 100//1 14//1 13//1
f 102//1 91//1 61//1
f 102//1 61//1 14//1
f 103//1 97//1 25//1
f 103//1 25//1 80//1
f 67//1 66//1 104//1
f 67//1 104//1 105//1
f 77//1 67//1 105//1
f 77//1 105//1 106//1
f 69//1 68//1 107//1
f 69//1 107//1 108//1
f 73//1 77//1 106//1
f 73//1 106//1 109//1
f 65//1 69//1 108//1
f 65//1 108//1 110//1
f 74//1 73//1 109//1
f 74//1 109//1 111//1
f 66//1 65//1 110//1
f 66//1 110//1 104//1
f 76//1 74//1 111//1
f 76//1 111//1 112//1
f 113//1 114//1 115//1
f 113//1 115//1 116//1
f 6//1 117//1 118//1
f 6//1 118//1 7//1
f 119//1 120//1 121//1
f 119//1 121//1 122//1
f 2//1 123//1 124//1
f 2//1 124//1 3//1
f 7//1 118//1 125//1
f 7//1 125//1 42//1
f 126//1 127//1 128//1
f 126//1 128//1 129//1
f 3//1 124//1 130//1
f 3//1 130//1 54//1
f 42//1 125//1 131//1
f 42//1 131//1 43//1
f 54//1 130//1 132//1
f 54//1 132//1 55//1
f 43//1 131//1 133//1
f 43//1 133//1 68//1
f 55//1 132//1 117//1
f 55//1 117//1 6//1
