# Blender v2.82 (sub 7) OBJ File: ''
# www.blender.org
o Cube.002_Cube.003
v 0.000000 0.499999 1.000000
v 0.000000 0.499999 0.000000
v -1.000000 0.499999 0.000000
v -1.000000 0.499999 1.000000
v -1.000000 0.499999 1.000000
v -1.000000 -0.500001 1.000000
v 0.000000 -0.500001 1.000000
v 0.000000 0.499999 1.000000
v -1.000000 0.500000 -1.000000
v -1.000000 -0.500001 -1.000000
v -1.000000 -0.500001 -0.000000
v -1.000000 0.499999 0.000000
v 1.000000 0.499999 1.000000
v 1.000000 -0.500001 1.000000
v 1.000000 -0.500001 -0.000000
v 1.000000 0.499999 0.000000
v 1.000000 0.500000 -1.000000
v 1.000000 -0.500001 -1.000000
v 0.000000 -0.500001 -1.000000
v 0.000000 0.500000 -1.000000
v -1.000000 -0.500001 -1.000000
v -1.000000 0.500000 -1.000000
v 1.000000 0.499999 0.000000
v 1.000000 -0.500001 -0.000000
v 1.000000 -0.500001 -1.000000
v 1.000000 0.500000 -1.000000
v -1.000000 0.499999 0.000000
v -1.000000 -0.500001 -0.000000
v -1.000000 -0.500001 1.000000
v -1.000000 0.499999 1.000000
v 1.000000 -0.500001 1.000000
v 1.000000 0.499999 1.000000
v 1.000000 0.499999 1.000000
v 1.000000 0.499999 0.000000
v 1.000000 0.500000 -1.000000
v 0.000000 0.500000 -1.000000
v -1.000000 0.500000 -1.000000
vn 0.0000 1.0000 0.0000
vn 0.0000 0.0000 1.0000
vn -1.0000 0.0000 0.0000
vn 1.0000 0.0000 0.0000
vn 0.0000 0.0000 -1.0000
s off
f 1//1 2//1 3//1
f 1//1 3//1 4//1
f 5//2 6//2 7//2
f 5//2 7//2 8//2
f 9//3 10//3 11//3
f 9//3 11//3 12//3
f 13//4 14//4 15//4
f 13//4 15//4 16//4
f 17//5 18//5 19//5
f 17//5 19//5 20//5
f 20//5 19//5 21//5
f 20//5 21//5 22//5
f 23//4 24//4 25//4
f 23//4 25//4 26//4
f 27//3 28//3 29//3
f 27//3 29//3 30//3
f 8//2 7//2 31//2
f 8//2 31//2 32//2
f 33//1 34//1 2//1
f 33//1 2//1 1//1
f 34//1 35//1 36//1
f 34//1 36//1 2//1
f 2//1 36//1 37//1
f 2//1 37//1 3//1
